<svg width="1110" height="256" viewBox="0 0 1110 256" fill="none" xmlns="http://www.w3.org/2000/svg">
<g opacity="0.86" filter="url(#filter0_ddig_86_3481)">
<path d="M51.5055 19.7895C48.6388 20.798 42.7907 23.622 38.3186 26.0425C33.9612 28.3622 27.5398 31.7913 24.3291 33.5059C21.0037 35.2204 18.2517 36.935 18.2517 37.3384C18.2517 37.7418 20.3157 38.5487 22.9531 39.1538C28.6865 40.5658 36.4839 47.1214 40.4973 53.9796C47.0334 65.4772 53.7988 88.9766 60.6789 123.873C63.2016 136.883 66.6417 151.608 68.247 156.55C75.5858 179.444 86.9379 187.715 104.023 182.672C111.248 180.554 137.392 166.434 137.507 164.619C137.507 163.913 135.787 163.106 133.608 162.803C128.218 161.895 123.976 158.769 122.714 154.533C121.912 152.112 122.256 143.035 123.861 125.083C126.269 95.9357 129.25 68.0995 130.168 64.6704C132.691 56.0976 137.621 72.5371 146.68 118.83C149.891 135.169 153.445 151.81 154.707 155.844C162.848 182.067 176.15 189.631 197.363 180.251C205.734 176.52 224.654 165.526 224.654 164.417C224.654 163.913 222.82 162.803 220.756 161.895C217.66 160.685 216.628 159.475 216.054 156.853C214.793 150.902 221.444 120.343 233.942 75.5628C242.313 45.4069 248.62 32.3965 258.252 24.8323L263.068 20.9997H226.145C191.859 20.9997 184.291 21.504 191.515 23.5211C195.529 24.7314 202.753 31.0853 206.651 37.0358C216.169 51.3574 218.118 62.2498 216.513 92.6075C214.793 126.293 212.041 151.507 209.862 153.424C208.027 155.037 203.899 148.683 200.574 139.102C197.363 129.823 194.955 119.536 188.419 87.0604C183.833 63.7627 179.475 49.9454 173.283 39.2547C161.472 18.3775 149.891 18.0749 127.072 38.2461C118.701 45.5077 117.554 48.13 121.797 49.7437C124.205 50.7522 124.32 51.1557 124.09 62.8549C123.632 85.1441 118.013 146.364 116.293 147.877C113.77 150.095 110.789 139.808 104.253 105.416C95.538 59.8293 92.098 46.9197 85.7912 35.8256C82.0072 29.2699 75.4711 22.5126 70.9991 20.4955C65.6096 18.0749 57.2389 17.7723 51.5055 19.7895Z" fill="white"/>
<path d="M542.285 21.6048C542.285 21.9074 543.546 23.1177 545.037 24.1262C551.229 28.3622 551.229 40.6666 545.266 55.795C541.024 66.4857 538.501 71.1251 523.709 94.9271C507.655 120.545 502.61 130.328 500.316 140.312C497.564 151.608 500.316 162.904 507.77 171.174C518.663 183.277 541.712 187.815 557.65 180.957C561.091 179.444 564.072 177.73 564.416 177.024C564.645 176.419 570.035 159.072 576.227 138.598C583.565 114.392 587.808 102.088 588.267 103.298C588.726 104.408 590.446 112.073 592.166 120.343C600.536 163.207 613.953 184.386 632.529 184.386C637.23 184.386 646.404 180.655 660.278 173.191C667.847 169.056 674.039 165.425 674.153 165.123C674.153 164.82 672.089 164.013 669.452 163.307C654.201 159.273 645.83 142.632 636.198 97.6502C627.254 55.8959 621.062 39.9606 608.907 28.7656C600.88 21.2014 599.619 20.9997 569.232 20.9997C554.44 20.9997 542.285 21.3023 542.285 21.6048ZM562.811 37.8426C566.365 39.9606 574.965 55.9967 577.947 65.9815C584.139 86.5561 581.387 114.897 571.411 133.656C565.104 145.355 557.192 149.49 546.069 146.565C534.144 143.439 528.525 135.875 528.525 122.864C528.525 112.779 531.506 102.592 540.565 81.5133C544.693 71.8311 549.968 58.2155 552.146 51.2565C556.045 39.4563 557.536 36.1281 559.37 36.1281C559.829 36.1281 561.32 36.8341 562.811 37.8426Z" fill="white"/>
<path d="M410.417 39.3555C399.065 51.2565 381.176 63.6618 368.678 68.402C364.894 69.814 363.403 70.9234 363.403 72.4362C363.403 74.1508 364.091 74.4534 369.136 74.4534H374.87V123.873V173.191L378.539 176.822C382.438 180.756 389.432 184.386 393.217 184.386C397.459 184.386 409.385 180.352 418.902 175.612C423.948 173.09 428.305 170.872 428.534 170.771C428.764 170.569 427.044 168.35 424.865 165.829C422.686 163.207 420.278 159.475 419.59 157.357C418.902 155.138 418.444 138.194 418.444 113.989V74.4534H429.91H441.377V123.873V173.292L445.391 177.226C451.009 182.672 456.399 184.79 462.82 183.882C468.554 183.176 492.863 172.889 493.666 170.771C494.01 169.964 492.748 167.644 490.914 165.526C489.079 163.408 486.9 160.181 486.212 158.265C485.41 155.945 484.951 141.724 484.951 114.695V74.4534H490.684C495.615 74.4534 496.418 74.1508 496.418 72.4362C496.418 70.7217 495.615 70.4191 490.684 70.4191H484.951V51.7608C484.951 41.4735 484.607 33.1024 484.148 33.1024C483.575 33.1024 479.103 37.0358 474.058 41.8769C456.628 58.5181 435.758 70.4191 424.062 70.4191H418.444V51.7608C418.444 41.4735 417.985 33.1024 417.526 33.1024C416.953 33.1024 413.742 35.9264 410.417 39.3555Z" fill="white"/>
<path d="M278.09 72.0327C263.412 75.1592 247.588 85.0431 243.001 93.9185C238.988 101.483 240.479 108.038 247.588 115.199C251.372 118.931 258.596 122.864 261.807 122.864C262.724 122.864 265.132 120.444 267.196 117.62C280.268 98.7595 305.61 75.9661 311.229 77.8824C312.72 78.3866 312.949 81.7149 312.949 101.079V123.671L290.933 124.074C269.948 124.377 268.458 124.478 262.495 126.999C254.468 130.327 246.9 136.984 243.116 144.044C239.217 151.608 238.988 162.702 242.657 168.854C248.735 178.94 258.252 183.882 271.668 183.882C279.236 183.882 281.186 183.378 286.575 180.755L292.882 177.629L302.629 157.559L312.376 137.589L312.949 155.844L313.522 174.2L317.421 177.73C323.154 182.873 328.2 184.689 334.392 183.882C340.355 183.075 364.435 172.788 365.352 170.67C365.696 169.863 364.894 168.148 363.632 166.938C362.371 165.728 360.192 162.702 358.931 160.181C356.867 156.147 356.523 153.625 356.523 136.379C356.523 113.888 355.605 108.744 350.216 99.0621C345.629 90.6911 334.736 81.1097 325.448 76.8738C311.917 70.9233 292.653 68.9062 278.09 72.0327ZM311.802 128.915C311.802 132.647 300.45 144.952 294.373 147.675C288.066 150.6 283.135 148.986 283.135 143.943C283.135 138.497 291.85 132.345 303.775 129.521C311.573 127.705 311.802 127.705 311.802 128.915Z" fill="white"/>
<path d="M668.993 72.638C661.884 75.8654 636.313 90.6912 636.313 91.5989C636.313 92.0023 638.033 92.7083 640.097 93.0109C649.041 94.6246 652.481 99.7682 668.535 134.967C676.103 151.911 684.244 168.754 686.423 172.586C690.666 179.545 695.826 184.386 699.151 184.386C702.018 184.386 714.517 178.94 721.97 174.502L728.621 170.468L735.386 154.23C739.17 145.254 742.496 138.295 742.954 138.699C743.413 139.102 746.509 145.355 749.834 152.617C753.16 159.778 757.403 168.552 759.352 172.082C763.021 178.839 769.099 184.386 772.653 184.386C775.291 184.386 788.822 178.436 796.046 174.099L801.55 170.771L822.19 122.36C833.427 95.734 842.716 73.6465 842.716 73.1423C842.716 72.7388 828.497 72.4363 811.182 72.4363C793.867 72.4363 779.648 72.7388 779.648 73.1423C779.763 73.6465 781.712 75.1594 784.235 76.6722C793.064 82.0176 799.944 94.4229 803.843 111.77C806.939 125.789 805.334 157.155 801.435 157.155C799.944 157.155 795.931 149.087 781.827 118.628C761.301 74.05 758.893 70.4192 750.522 70.4192C748.344 70.4192 743.413 72.1337 738.368 74.756C726.098 81.009 709.701 90.5903 709.701 91.498C709.701 92.0023 711.191 92.6075 713.026 92.91C720.021 94.2212 726.327 100.878 732.061 113.283C734.813 119.133 735.272 121.755 735.272 128.411C735.042 139.808 730.685 157.155 728.047 157.155C726.786 157.155 720.135 143.943 706.49 114.291C689.519 77.6808 688.831 76.2688 684.588 73.1423C680.116 69.814 675.415 69.7132 668.993 72.638Z" fill="white"/>
<path d="M880.098 72.0327C865.42 75.1592 849.596 85.0431 845.009 93.9185C840.996 101.483 842.486 108.038 849.596 115.199C853.38 118.931 860.604 122.864 863.815 122.864C864.732 122.864 867.14 120.444 869.204 117.62C882.276 98.7595 907.618 75.9661 913.237 77.8824C914.727 78.3866 914.957 81.7149 914.957 101.079V123.671L892.94 124.074C871.956 124.377 870.465 124.478 864.503 126.999C856.476 130.327 848.908 136.984 845.124 144.044C841.225 151.608 840.996 162.702 844.665 168.854C850.743 178.94 860.26 183.882 873.676 183.882C881.244 183.882 883.194 183.378 888.583 180.755L894.89 177.629L904.637 157.559L914.383 137.589L914.957 155.844L915.53 174.2L919.429 177.73C925.162 182.873 930.208 184.689 936.4 183.882C942.362 183.075 966.443 172.788 967.36 170.67C967.704 169.863 966.901 168.148 965.64 166.938C964.379 165.728 962.2 162.702 960.939 160.181C958.875 156.147 958.531 153.625 958.531 136.379C958.531 113.888 957.613 108.744 952.224 99.0621C947.637 90.6911 936.744 81.1097 927.455 76.8738C913.925 70.9233 894.66 68.9062 880.098 72.0327ZM913.81 128.915C913.81 132.647 902.458 144.952 896.38 147.675C890.074 150.6 885.143 148.986 885.143 143.943C885.143 138.497 893.858 132.345 905.783 129.521C913.581 127.705 913.81 127.705 913.81 128.915Z" fill="white"/>
<path d="M988.918 73.7473C979.4 78.3867 958.531 90.5903 958.531 91.498C958.531 92.0023 960.021 92.6074 961.856 92.91C966.328 93.7168 972.979 98.9613 975.96 104.004C977.222 106.223 983.414 119.435 989.72 133.353C1004.05 165.123 1007.26 171.578 1011.62 177.528C1017.81 185.798 1022.29 186 1035.82 178.839C1039.49 176.822 1042.7 175.41 1042.93 175.612C1044.07 176.62 1030.89 191.245 1025.84 194.472C1017.36 200.12 1010.25 202.036 997.518 202.036C988.344 202.036 985.822 201.633 981.579 199.716C978.827 198.405 976.19 197.699 975.616 198.204C975.158 198.607 972.176 205.768 968.966 213.937L963.117 228.864L966.099 231.284C971.03 235.319 979.63 237.336 991.785 237.336C1001.42 237.336 1003.48 237.033 1009.1 234.512C1017.7 230.881 1024.58 224.124 1031 213.13C1034.9 206.272 1091.55 75.2602 1091.55 72.9405C1091.55 72.6379 1077.33 72.4362 1060.01 72.4362C1042.7 72.4362 1028.48 72.8396 1028.48 73.3439C1028.48 73.7473 1030.54 75.4619 1033.07 76.9747C1037.88 79.8996 1043.04 86.2535 1046.6 93.616C1053.82 108.845 1056.8 138.598 1052.44 153.323C1050.15 160.988 1049.69 160.181 1030.77 119.334C1023.09 102.693 1015.18 85.8501 1013.11 81.9167C1006.69 69.8139 1001.07 67.8977 988.918 73.7473Z" fill="white"/>
</g>
<defs>
<filter id="filter0_ddig_86_3481" x="-1.74829" y="-1.54309" width="1113.29" height="258.879" filterUnits="userSpaceOnUse" color-interpolation-filters="sRGB">
<feFlood flood-opacity="0" result="BackgroundImageFix"/>
<feColorMatrix in="SourceAlpha" type="matrix" values="0 0 0 0 0 0 0 0 0 0 0 0 0 0 0 0 0 0 127 0" result="hardAlpha"/>
<feOffset dx="4" dy="8"/>
<feGaussianBlur stdDeviation="2"/>
<feColorMatrix type="matrix" result="shdwTex" values="0 0 0 0 0 0 0 0 0 0 0 0 0 0 0 0 0 0 0.25 0"/><feTurbulence type="fractalNoise" baseFrequency="0.010582010261714458 0.010582010261714458" numOctaves="3" seed="6415" />
<feDisplacementMap in="shdwTex" scale="8" xChannelSelector="R" yChannelSelector="G" result="displacedImage" width="100%" height="100%" />
<feBlend mode="normal" in2="BackgroundImageFix" result="effect1_dropShadow_86_3481"/>
<feColorMatrix in="SourceAlpha" type="matrix" values="0 0 0 0 0 0 0 0 0 0 0 0 0 0 0 0 0 0 127 0" result="hardAlpha"/>
<feOffset/>
<feGaussianBlur stdDeviation="9"/>
<feColorMatrix type="matrix" result="shdwTex" values="0 0 0 0 0 0 0 0 0 0 0 0 0 0 0 0 0 0 0.25 0"/><feTurbulence type="fractalNoise" baseFrequency="0.010582010261714458 0.010582010261714458" numOctaves="3" seed="6415" />
<feDisplacementMap in="shdwTex" scale="8" xChannelSelector="R" yChannelSelector="G" result="displacedImage" width="100%" height="100%" />
<feBlend mode="normal" in2="effect1_dropShadow_86_3481" result="effect2_dropShadow_86_3481"/>
<feBlend mode="normal" in="SourceGraphic" in2="BackgroundImageFix" result="shape"/>
<feColorMatrix in="SourceAlpha" type="matrix" values="0 0 0 0 0 0 0 0 0 0 0 0 0 0 0 0 0 0 127 0" result="hardAlpha"/>
<feOffset dx="4" dy="4"/>
<feGaussianBlur stdDeviation="9"/>
<feComposite in2="hardAlpha" operator="arithmetic" k2="-1" k3="1"/>
<feColorMatrix type="matrix" values="0 0 0 0 0 0 0 0 0 0 0 0 0 0 0 0 0 0 0.5 0"/>
<feBlend mode="normal" in2="shape" result="effect3_innerShadow_86_3481"/>
<feTurbulence type="fractalNoise" baseFrequency="0.010582010261714458 0.010582010261714458" numOctaves="3" seed="6415" result="displacementX" />
<feTurbulence type="fractalNoise" baseFrequency="0.010582010261714458 0.010582010261714458" numOctaves="3" seed="6416" result="displacementY" />
<feColorMatrix in="displacementX" type="matrix" values="0 0 0 1 0  0 0 0 0 0  0 0 0 0 0  0 0 0 0 1" result="displacementXRed" />
<feColorMatrix in="displacementY" type="matrix" values="0 0 0 0 0  0 0 0 1 0  0 0 0 0 0  0 0 0 0 1" />
<feComposite in="displacementXRed" operator="arithmetic" k1="0" k2="1" k3="1" k4="0"/>
<feDisplacementMap in="effect3_innerShadow_86_3481" scale="8" xChannelSelector="R" yChannelSelector="G" width="100%" height="100%" />
<feColorMatrix type="matrix" values="0 0 0 0 0  0 0 0 0 0  0 0 0 0 0  0 0 0 1 0" />
<feComponentTransfer result="sourceDisplacedAlpha">
<feFuncA type="gamma" exponent="0.2" />
</feComponentTransfer>
<feColorMatrix in="effect3_innerShadow_86_3481" type="matrix" values="0 0 0 0 0  0 0 0 0 0  0 0 0 0 0  0 0 0 1 0" />
<feComponentTransfer result="inputSourceAlpha">
<feFuncA type="gamma" exponent="0.2" />
</feComponentTransfer>
<feComposite in="sourceDisplacedAlpha" operator="arithmetic" k1="1" k2="0" k3="0" k4="0" result="displacementAlphasMultiplied"/>
<feComposite in="displacementAlphasMultiplied"  operator="arithmetic" k1="0" k2="0" k3="-0.5" k4="0.5" result="centeringAdjustment"/>
<feComposite in="displacementX" in2="displacementAlphasMultiplied" operator="arithmetic" k1="1" k2="0" k3="0" k4="0" />
<feComposite in="centeringAdjustment" operator="arithmetic" k1="0" k2="1" k3="1" k4="0" />
<feColorMatrix  type="matrix" values="0 0 0 1 0  0 0 0 0 0  0 0 0 0 0  0 0 0 0 1" result="displacementXFinal" />
<feComposite in="displacementY" in2="displacementAlphasMultiplied" operator="arithmetic" k1="1" k2="0" k3="0" k4="0" />
<feComposite in="centeringAdjustment" operator="arithmetic" k1="0" k2="1" k3="1" k4="0" />
<feColorMatrix  type="matrix" values="0 0 0 0 0  0 0 0 1 0  0 0 0 0 0  0 0 0 0 1" result="displacementYFinal" />
<feComposite in="displacementXFinal" in2="displacementYFinal" operator="arithmetic" k1="0" k2="1" k3="1" k4="0" />
<feComposite in2="displacementAlphasMultiplied" operator="in" result="displacementMap" />
<feFlood flood-color="rgb(127, 127, 127)" flood-opacity="1"/>
<feComposite in2="displacementAlphasMultiplied" operator="out" />
<feComposite in2="displacementMap" operator="over" result="displacementMapWithBg"/>
<feDisplacementMap in="effect3_innerShadow_86_3481" scale="8" xChannelSelector="R" yChannelSelector="G" width="100%" height="100%" result="displacedImage" />
<feColorMatrix in="effect3_innerShadow_86_3481" type="matrix" values="1 0 0 0 0  0 1 0 0 0  0 0 1 0 0  0 0 0 127 0" result="imageOpaque" />
<feDisplacementMap in="imageOpaque" in2="displacementMapWithBg" scale="8" xChannelSelector="R" yChannelSelector="G" width="100%" height="100%" result="displacedImageOpaque" />
<feColorMatrix in="displacedImage" type="matrix" values="0 0 0 1 0  0 0 0 0 0  0 0 0 0 0  0 0 0 127 0" result="displacedImageRed" />
<feColorMatrix in="effect3_innerShadow_86_3481" type="matrix" values="0 0 0 1 0  0 0 0 0 0  0 0 0 0 0  0 0 0 127 0" />
<feComposite in="displacedImageRed"  operator="atop" result="transparencyRedMap"/>
<feColorMatrix in="transparencyRedMap" type="matrix" values="0 0 0 0 0  0 0 0 0 0  0 0 0 0 0  1 0 0 0 0" result="transparencyAlphaMap" />
<feComposite in="displacedImageOpaque" in2="imageOpaque" operator="over" />
<feComposite in2="transparencyAlphaMap" operator="in" result="effect4_texture_86_3481"/>
<feBlend mode="normal" in="effect4_texture_86_3481" in2="effect2_dropShadow_86_3481" result="effect4_texture_86_3481"/>
</filter>
</defs>
</svg>
